C:\Users\r0593348\3dpredictsim\Results\batch_windlass\Pog_s1_tmt_bCst_d00_k1500_WL30_ig24_act_TTC_GRF.mot
nRows=10
nColumns=19

name C:\Users\r0593348\3dpredictsim\Results\batch_windlass\Pog_s1_tmt_bCst_d00_k1500_WL30_ig24_act_TTC_GRF.mot
datacolumns 19
datarows 10
range 0.0000000000 0.1102081486
endheader
time 	ground_force_vx	ground_force_vy	ground_force_vz	ground_force_px	ground_force_py	ground_force_pz	1_ground_force_vx	1_ground_force_vy	1_ground_force_vz	1_ground_force_px	1_ground_force_py	1_ground_force_pz	ground_torque_x	ground_torque_y	ground_torque_z	1_ground_torque_x	1_ground_torque_y	1_ground_torque_z
        0.0000000000	      -43.8046826207	       31.3189108679	        9.2216797800	        0.1770439658	        0.0000000000	        0.0563622126	       69.9852382176	      330.7625082958	       -4.8367990084	       -0.3539569659	        0.0000000000	       -0.0250953883	        0.0000000000	        0.0000000000	        0.0000000000	        0.0000000000	        0.0000000000	        0.0000000000	
        0.0122453498	     -113.7146205913	       98.4710286147	       29.0794449177	        0.1880543324	        0.0000000000	        0.0540266334	       38.5247309677	      225.2628166925	      -10.4420306564	       -0.3416999729	        0.0000000000	       -0.0182167030	        0.0000000000	        0.0000000000	        0.0000000000	        0.0000000000	        0.0000000000	        0.0000000000	
        0.0244906997	     -101.2424844666	      257.0180326576	       31.2147515482	        0.1956038074	        0.0000000000	        0.0524070018	       28.1009752793	      178.6658718379	      -14.8914512526	       -0.3387631642	        0.0000000000	       -0.0165689447	        0.0000000000	        0.0000000000	        0.0000000000	        0.0000000000	        0.0000000000	        0.0000000000	
        0.0367360495	      -72.0481382314	      515.9172735851	       -0.6484089437	        0.2005134668	        0.0000000000	        0.0520147093	       24.5165908831	      127.8777323737	      -15.5905462402	       -0.3383070310	        0.0000000000	       -0.0167341180	        0.0000000000	        0.0000000000	        0.0000000000	        0.0000000000	        0.0000000000	        0.0000000000	
        0.0489813994	     -105.0030761870	      797.4053620202	      -23.2049218424	        0.2111058565	        0.0000000000	        0.0538455494	       15.7535763028	       70.6077045813	       -9.2618279993	       -0.3378081220	        0.0000000000	       -0.0164226267	        0.0000000000	        0.0000000000	        0.0000000000	        0.0000000000	        0.0000000000	        0.0000000000	
        0.0612267492	     -143.5967476954	      943.3963450616	      -31.8652977618	        0.2189528407	        0.0000000000	        0.0552761113	       -5.5171121354	       17.3451802350	       -1.0326388523	       -0.3414620847	        0.0000000000	       -0.0155072893	        0.0000000000	        0.0000000000	        0.0000000000	        0.0000000000	        0.0000000000	        0.0000000000	
        0.0734720991	     -150.0533818507	      968.2661139166	      -33.6532304966	        0.2249914042	        0.0000000000	        0.0562459089	        0.0113764371	       -0.0091171182	       -0.0014900389	        0.0000000000	        0.0000000000	        0.0000000000	        0.0000000000	        0.0000000000	        0.0000000000	        0.0000000000	        0.0000000000	        0.0000000000	
        0.0857174489	     -144.1831430215	      925.1870801745	      -28.4071145977	        0.2299969660	        0.0000000000	        0.0567499573	        0.3546025726	       -0.2440476660	       -0.0516781093	        0.0000000000	        0.0000000000	        0.0000000000	        0.0000000000	        0.0000000000	        0.0000000000	        0.0000000000	        0.0000000000	        0.0000000000	
        0.0979627988	     -128.0818495947	      864.7978822521	      -23.6732573854	        0.2346856596	        0.0000000000	        0.0566008409	       -2.1687855073	        1.3333788100	        0.2960882469	        0.0000000000	        0.0000000000	        0.0000000000	        0.0000000000	        0.0000000000	        0.0000000000	        0.0000000000	        0.0000000000	        0.0000000000	
        0.1102081486	     -113.5787875990	      811.2486929883	      -20.2447112858	        0.2399181580	        0.0000000000	        0.0561409490	       -0.1169535882	        0.0681413476	        0.0136213744	        0.0000000000	        0.0000000000	        0.0000000000	        0.0000000000	        0.0000000000	        0.0000000000	        0.0000000000	        0.0000000000	        0.0000000000	
